<svg xmlns="http://www.w3.org/2000/svg" xmlns:xlink="http://www.w3.org/1999/xlink" width="1080" zoomAndPan="magnify" viewBox="0 0 810 809.999993" height="1080" preserveAspectRatio="xMidYMid meet" version="1.0"><defs><clipPath id="5f54720289"><path d="M 149.894531 200.523438 L 672 200.523438 L 672 608.144531 L 149.894531 608.144531 Z M 149.894531 200.523438 " clip-rule="nonzero"/></clipPath></defs><g clip-path="url(#5f54720289)"><path fill="#000000" d="M 634.652344 323.671875 C 632.515625 307.8125 632.226562 280.445312 646.972656 271.28125 C 647.21875 271.117188 647.425781 270.871094 647.671875 270.667969 C 659.707031 266.804688 668.042969 261.378906 661.511719 254.105469 L 483.746094 200.523438 L 195.9375 240.546875 C 195.9375 240.546875 162.996094 245.273438 165.914062 296.511719 C 167.515625 324.371094 176.261719 338.054688 183.902344 344.792969 L 160.285156 351.945312 C 153.753906 359.21875 162.09375 364.601562 174.128906 368.460938 C 174.375 368.667969 174.539062 368.914062 174.824219 369.078125 C 189.53125 378.285156 189.242188 405.609375 187.148438 421.511719 C 134.242188 436.507812 153.21875 441.441406 153.21875 441.441406 L 164.84375 444.234375 C 156.671875 451.628906 148.539062 465.601562 150.097656 492.144531 C 153.015625 543.386719 180.082031 546.921875 180.082031 546.921875 L 368.449219 608.144531 L 652.722656 539.277344 C 652.722656 539.277344 671.699219 534.347656 618.796875 519.308594 C 616.660156 503.488281 616.371094 476.121094 631.117188 466.917969 C 631.40625 466.753906 631.570312 466.503906 631.816406 466.300781 C 643.851562 462.4375 652.191406 457.054688 645.660156 449.78125 L 633.296875 446.042969 C 641.550781 441.070312 653.914062 428.085938 655.84375 394.308594 C 657.199219 371.132812 651.121094 357.53125 644.140625 349.519531 L 668.539062 343.601562 C 668.539062 343.601562 687.554688 338.714844 634.652344 323.671875 Z M 396.871094 323.015625 L 444.640625 313.195312 L 606.226562 279.953125 L 630.296875 275.023438 C 622.574219 289.117188 622.902344 308.386719 624.175781 320.757812 C 624.464844 323.550781 624.792969 326.097656 625.082031 328.070312 L 598.753906 334.605469 L 394.859375 385.351562 Z M 191.5 372.859375 L 215.570312 377.789062 L 370.707031 409.71875 L 384.261719 412.511719 L 424.925781 420.855469 L 426.898438 483.1875 L 217.335938 431.042969 L 196.675781 425.90625 C 197.003906 423.933594 197.292969 421.386719 197.621094 418.59375 C 198.855469 406.226562 199.183594 386.953125 191.5 372.859375 Z M 182.136719 294.046875 C 181.847656 280.40625 184.273438 270.542969 189.203125 265.53125 C 192.324219 262.324219 196.019531 261.667969 198.523438 261.667969 C 199.878906 261.667969 200.824219 261.871094 200.90625 261.871094 L 324.910156 302.304688 L 386.769531 322.480469 L 384.753906 385.269531 L 211.175781 336.578125 L 202.015625 334.027344 C 201.6875 333.945312 201.195312 333.863281 200.867188 333.863281 C 200.125 333.78125 183 332.21875 182.136719 294.046875 Z M 368.902344 580.945312 L 186.160156 529.703125 C 185.832031 529.582031 185.382812 529.539062 185.011719 529.496094 C 184.273438 529.457031 167.101562 527.894531 166.28125 489.722656 C 165.996094 476.078125 168.417969 466.21875 173.347656 461.203125 C 176.46875 458 180.125 457.34375 182.671875 457.34375 C 183.984375 457.34375 184.96875 457.546875 185.011719 457.546875 C 185.011719 457.546875 185.050781 457.546875 185.011719 457.546875 L 370.914062 518.15625 Z M 608.324219 516.429688 C 608.609375 519.226562 608.9375 521.773438 609.226562 523.746094 L 379.003906 581.027344 L 380.976562 518.691406 L 430.226562 508.542969 L 437.496094 510.308594 L 464.726562 501.472656 L 590.332031 475.628906 L 614.402344 470.695312 C 606.71875 484.75 607.050781 504.023438 608.324219 516.429688 Z M 621.015625 431.660156 C 620.605469 431.703125 620.152344 431.742188 619.78125 431.867188 L 602.40625 436.753906 L 437.042969 483.105469 L 435.03125 420.320312 L 489.289062 402.609375 L 620.644531 359.75 C 620.644531 359.75 627.546875 358.230469 632.597656 363.367188 C 637.484375 368.378906 639.949219 378.242188 639.664062 391.882812 C 638.800781 430.058594 621.628906 431.621094 621.015625 431.660156 Z M 621.015625 431.660156 " fill-opacity="1" fill-rule="nonzero"/></g></svg>