<svg xmlns="http://www.w3.org/2000/svg" xmlns:xlink="http://www.w3.org/1999/xlink" width="1080" zoomAndPan="magnify" viewBox="0 0 810 809.999993" height="1080" preserveAspectRatio="xMidYMid meet" version="1.0"><defs><clipPath id="d7710b9f4f"><path d="M 191 335 L 669.945312 335 L 669.945312 678.242188 L 191 678.242188 Z M 191 335 " clip-rule="nonzero"/></clipPath><clipPath id="fbf07d34df"><path d="M 169 131.492188 L 654 131.492188 L 654 336 L 169 336 Z M 169 131.492188 " clip-rule="nonzero"/></clipPath><clipPath id="8854769014"><path d="M 570 131.492188 L 649 131.492188 L 649 194 L 570 194 Z M 570 131.492188 " clip-rule="nonzero"/></clipPath><clipPath id="0cc2e193bb"><path d="M 191 335 L 669.945312 335 L 669.945312 420 L 191 420 Z M 191 335 " clip-rule="nonzero"/></clipPath><clipPath id="388f6b1597"><path d="M 606 355 L 669.945312 355 L 669.945312 420 L 606 420 Z M 606 355 " clip-rule="nonzero"/></clipPath><clipPath id="a9b7decf76"><path d="M 139.695312 284 L 244 284 L 244 388 L 139.695312 388 Z M 139.695312 284 " clip-rule="nonzero"/></clipPath></defs><g clip-path="url(#d7710b9f4f)"><path fill="#000000" d="M 191.511719 335.839844 L 670.003906 335.839844 L 670.003906 647.609375 C 670.003906 664.402344 656.257812 678.152344 639.464844 678.152344 L 222.109375 678.152344 C 205.257812 678.152344 191.511719 664.402344 191.511719 647.609375 Z M 191.511719 335.839844 " fill-opacity="1" fill-rule="evenodd"/></g><g clip-path="url(#fbf07d34df)"><path fill="#fefefe" d="M 169.96875 255.515625 L 632.203125 131.640625 L 653.722656 211.960938 L 191.488281 335.839844 Z M 169.96875 255.515625 " fill-opacity="1" fill-rule="evenodd"/></g><path fill="#000000" d="M 234.300781 324.390625 L 191.511719 335.839844 L 180.011719 292.984375 Z M 234.300781 324.390625 " fill-opacity="1" fill-rule="evenodd"/><path fill="#000000" d="M 195.941406 248.578125 L 257.421875 232.070312 L 359.273438 290.914062 L 297.792969 307.367188 Z M 195.941406 248.578125 " fill-opacity="1" fill-rule="evenodd"/><path fill="#000000" d="M 320.914062 215.042969 L 382.335938 198.59375 L 484.1875 257.4375 L 422.765625 273.886719 Z M 320.914062 215.042969 " fill-opacity="1" fill-rule="evenodd"/><path fill="#000000" d="M 445.824219 181.566406 L 507.304688 165.113281 L 609.097656 223.902344 L 547.679688 240.410156 Z M 445.824219 181.566406 " fill-opacity="1" fill-rule="evenodd"/><g clip-path="url(#8854769014)"><path fill="#000000" d="M 570.738281 148.089844 L 632.21875 131.636719 L 648.667969 193.128906 Z M 570.738281 148.089844 " fill-opacity="1" fill-rule="evenodd"/></g><g clip-path="url(#0cc2e193bb)"><path fill="#fefefe" d="M 191.511719 335.839844 L 670.0625 335.839844 L 670.0625 419.015625 L 191.511719 419.015625 Z M 191.511719 335.839844 " fill-opacity="1" fill-rule="evenodd"/></g><path fill="#000000" d="M 235.855469 335.839844 L 191.511719 335.839844 L 191.511719 380.1875 Z M 235.855469 335.839844 " fill-opacity="1" fill-rule="evenodd"/><path fill="#000000" d="M 218.429688 419.015625 L 282.035156 419.015625 L 365.195312 335.839844 L 301.53125 335.839844 Z M 218.429688 419.015625 " fill-opacity="1" fill-rule="evenodd"/><path fill="#000000" d="M 347.710938 419.015625 L 411.378906 419.015625 L 494.539062 335.839844 L 430.875 335.839844 Z M 347.710938 419.015625 " fill-opacity="1" fill-rule="evenodd"/><path fill="#000000" d="M 477.054688 419.015625 L 540.71875 419.015625 L 623.820312 335.839844 L 560.214844 335.839844 Z M 477.054688 419.015625 " fill-opacity="1" fill-rule="evenodd"/><g clip-path="url(#388f6b1597)"><path fill="#000000" d="M 606.394531 419.015625 L 670.003906 419.015625 L 670.003906 355.398438 Z M 606.394531 419.015625 " fill-opacity="1" fill-rule="evenodd"/></g><path fill="#fefefe" d="M 226.132812 335.839844 C 226.132812 336.972656 226.078125 338.105469 225.96875 339.234375 C 225.855469 340.363281 225.691406 341.484375 225.46875 342.59375 C 225.25 343.707031 224.972656 344.804688 224.644531 345.890625 C 224.316406 346.976562 223.933594 348.042969 223.5 349.089844 C 223.066406 350.140625 222.582031 351.164062 222.046875 352.164062 C 221.511719 353.164062 220.929688 354.132812 220.300781 355.078125 C 219.671875 356.019531 218.996094 356.929688 218.277344 357.808594 C 217.554688 358.683594 216.796875 359.523438 215.996094 360.324219 C 215.191406 361.128906 214.351562 361.886719 213.476562 362.605469 C 212.601562 363.328125 211.691406 364 210.746094 364.632812 C 209.804688 365.261719 208.832031 365.84375 207.832031 366.378906 C 206.832031 366.914062 205.808594 367.398438 204.761719 367.832031 C 203.714844 368.265625 202.648438 368.648438 201.5625 368.976562 C 200.476562 369.304688 199.378906 369.582031 198.265625 369.800781 C 197.15625 370.023438 196.035156 370.191406 194.90625 370.300781 C 193.777344 370.410156 192.648438 370.46875 191.511719 370.46875 C 190.378906 370.46875 189.25 370.410156 188.121094 370.300781 C 186.992188 370.191406 185.871094 370.023438 184.757812 369.800781 C 183.648438 369.582031 182.546875 369.304688 181.464844 368.976562 C 180.378906 368.648438 179.3125 368.265625 178.265625 367.832031 C 177.214844 367.398438 176.191406 366.914062 175.191406 366.378906 C 174.191406 365.84375 173.222656 365.261719 172.277344 364.632812 C 171.335938 364 170.425781 363.328125 169.550781 362.605469 C 168.671875 361.886719 167.832031 361.128906 167.03125 360.324219 C 166.230469 359.523438 165.46875 358.683594 164.75 357.808594 C 164.03125 356.929688 163.355469 356.019531 162.726562 355.078125 C 162.097656 354.136719 161.515625 353.164062 160.980469 352.164062 C 160.445312 351.164062 159.960938 350.140625 159.527344 349.089844 C 159.09375 348.042969 158.710938 346.976562 158.382812 345.890625 C 158.054688 344.804688 157.777344 343.707031 157.558594 342.59375 C 157.335938 341.484375 157.167969 340.363281 157.058594 339.234375 C 156.945312 338.105469 156.890625 336.972656 156.890625 335.839844 C 156.890625 334.707031 156.945312 333.574219 157.058594 332.445312 C 157.167969 331.316406 157.335938 330.195312 157.558594 329.082031 C 157.777344 327.972656 158.054688 326.871094 158.382812 325.789062 C 158.710938 324.703125 159.09375 323.636719 159.527344 322.585938 C 159.960938 321.539062 160.445312 320.515625 160.980469 319.515625 C 161.515625 318.515625 162.097656 317.542969 162.726562 316.601562 C 163.355469 315.65625 164.03125 314.75 164.75 313.871094 C 165.46875 312.996094 166.230469 312.15625 167.03125 311.355469 C 167.832031 310.550781 168.671875 309.789062 169.550781 309.070312 C 170.425781 308.351562 171.335938 307.675781 172.277344 307.046875 C 173.222656 306.417969 174.191406 305.835938 175.191406 305.300781 C 176.191406 304.765625 177.214844 304.28125 178.265625 303.847656 C 179.3125 303.414062 180.378906 303.03125 181.464844 302.703125 C 182.546875 302.375 183.648438 302.097656 184.757812 301.875 C 185.871094 301.65625 186.992188 301.488281 188.121094 301.378906 C 189.25 301.265625 190.378906 301.210938 191.511719 301.210938 C 192.648438 301.210938 193.777344 301.265625 194.90625 301.378906 C 196.035156 301.488281 197.15625 301.65625 198.265625 301.875 C 199.378906 302.097656 200.476562 302.375 201.5625 302.703125 C 202.648438 303.03125 203.714844 303.414062 204.761719 303.847656 C 205.808594 304.28125 206.832031 304.765625 207.832031 305.300781 C 208.832031 305.835938 209.804688 306.417969 210.746094 307.046875 C 211.691406 307.675781 212.601562 308.351562 213.476562 309.070312 C 214.351562 309.789062 215.191406 310.550781 215.996094 311.355469 C 216.796875 312.15625 217.554688 312.996094 218.277344 313.871094 C 218.996094 314.75 219.671875 315.65625 220.300781 316.601562 C 220.929688 317.542969 221.511719 318.515625 222.046875 319.515625 C 222.582031 320.515625 223.066406 321.539062 223.5 322.585938 C 223.933594 323.636719 224.316406 324.703125 224.644531 325.789062 C 224.972656 326.871094 225.25 327.972656 225.46875 329.082031 C 225.691406 330.195312 225.855469 331.316406 225.96875 332.445312 C 226.078125 333.574219 226.132812 334.707031 226.132812 335.839844 Z M 226.132812 335.839844 " fill-opacity="1" fill-rule="nonzero"/><g clip-path="url(#a9b7decf76)"><path fill="#000000" d="M 191.511719 284.070312 C 205.777344 284.070312 218.714844 289.820312 228.089844 299.199219 C 237.464844 308.574219 243.273438 321.574219 243.273438 335.839844 C 243.273438 350.164062 237.464844 363.105469 228.089844 372.480469 C 218.714844 381.855469 205.777344 387.667969 191.511719 387.667969 C 177.191406 387.667969 164.253906 381.855469 154.878906 372.480469 C 145.503906 363.105469 139.695312 350.164062 139.695312 335.839844 C 139.695312 321.574219 145.503906 308.574219 154.878906 299.199219 C 164.253906 289.820312 177.191406 284.070312 191.511719 284.070312 Z M 203.820312 323.53125 C 200.65625 320.367188 196.285156 318.410156 191.511719 318.410156 C 186.683594 318.410156 182.3125 320.367188 179.148438 323.53125 C 175.984375 326.636719 174.03125 331.007812 174.03125 335.839844 C 174.03125 340.671875 175.984375 345.042969 179.148438 348.207031 C 182.3125 351.371094 186.683594 353.324219 191.511719 353.324219 C 196.285156 353.324219 200.65625 351.371094 203.820312 348.207031 C 206.984375 345.042969 208.9375 340.671875 208.9375 335.839844 C 208.9375 331.007812 206.984375 326.636719 203.820312 323.53125 Z M 203.820312 323.53125 " fill-opacity="1" fill-rule="nonzero"/></g></svg>