<svg xmlns="http://www.w3.org/2000/svg" xmlns:xlink="http://www.w3.org/1999/xlink" width="1080" zoomAndPan="magnify" viewBox="0 0 810 809.999993" height="1080" preserveAspectRatio="xMidYMid meet" version="1.0"><defs><clipPath id="965e4188d3"><path d="M 251 133.832031 L 668.054688 133.832031 L 668.054688 532 L 251 532 Z M 251 133.832031 " clip-rule="nonzero"/></clipPath><clipPath id="7fa1525e0c"><path d="M 142.304688 278 L 560 278 L 560 676.082031 L 142.304688 676.082031 Z M 142.304688 278 " clip-rule="nonzero"/></clipPath></defs><g clip-path="url(#965e4188d3)"><path fill="#000000" d="M 625.957031 133.855469 L 293.449219 133.855469 C 270.257812 133.855469 251.351562 152.289062 251.351562 175.917969 L 251.351562 248.003906 L 516.910156 248.003906 C 556.894531 248.003906 589.511719 280.476562 589.511719 320.257812 L 589.511719 452.554688 L 632.066406 452.554688 L 632.066406 489.3125 C 632.066406 492.792969 629.496094 495.589844 625.957031 495.589844 L 589.511719 495.589844 L 589.511719 531.546875 L 625.957031 531.546875 C 649.148438 531.546875 668.054688 512.652344 668.054688 489.3125 L 668.054688 175.460938 C 668.054688 152.289062 649.148438 133.855469 625.957031 133.855469 Z M 346.515625 212.332031 L 287.335938 212.332031 L 287.335938 175.917969 C 287.335938 172.4375 289.90625 169.8125 293.449219 169.8125 L 346.515625 169.8125 Z M 441.738281 212.332031 L 382.558594 212.332031 L 382.558594 169.8125 L 441.738281 169.8125 Z M 536.902344 212.332031 L 477.726562 212.332031 L 477.726562 169.8125 L 536.902344 169.8125 Z M 632.066406 212.332031 L 572.890625 212.332031 L 572.890625 169.8125 L 625.957031 169.8125 C 629.441406 169.8125 632.066406 172.378906 632.066406 175.917969 Z M 632.066406 212.332031 " fill-opacity="1" fill-rule="nonzero"/></g><g clip-path="url(#7fa1525e0c)"><path fill="#000000" d="M 516.910156 278.539062 L 184.402344 278.539062 C 161.15625 278.539062 142.304688 296.972656 142.304688 320.601562 L 142.304688 633.992188 C 142.304688 657.222656 161.15625 676.054688 184.402344 676.054688 L 516.910156 676.054688 C 540.160156 676.054688 559.007812 657.222656 559.007812 633.992188 L 559.007812 320.203125 C 559.007812 296.972656 540.160156 278.539062 516.910156 278.539062 Z M 273.457031 314.492188 L 332.636719 314.492188 L 332.636719 357.015625 L 273.457031 357.015625 Z M 397.582031 464.371094 C 407.238281 470.078125 407.238281 483.660156 397.582031 489.367188 L 319.039062 537.140625 C 308.929688 543.304688 296.648438 536.28125 296.648438 524.410156 L 296.648438 429.328125 C 296.648438 417.910156 309.386719 410.890625 319.039062 416.597656 Z M 237.46875 639.699219 L 184.402344 639.699219 C 180.917969 639.699219 178.234375 637.074219 178.234375 633.535156 L 178.234375 596.722656 L 237.46875 596.722656 Z M 237.46875 357.015625 L 178.234375 357.015625 L 178.234375 320.65625 C 178.234375 317.175781 180.863281 314.492188 184.402344 314.492188 L 237.46875 314.492188 Z M 332.636719 639.699219 L 273.457031 639.699219 L 273.457031 596.722656 L 332.636719 596.722656 Z M 427.855469 639.699219 L 368.621094 639.699219 L 368.621094 596.722656 L 427.855469 596.722656 Z M 427.855469 357.015625 L 368.621094 357.015625 L 368.621094 314.492188 L 427.855469 314.492188 Z M 523.023438 633.992188 C 523.023438 637.472656 520.394531 640.15625 516.851562 640.15625 L 463.785156 640.15625 L 463.785156 597.179688 L 523.023438 597.179688 Z M 523.023438 357.015625 L 463.785156 357.015625 L 463.785156 314.492188 L 516.851562 314.492188 C 520.335938 314.492188 523.023438 317.121094 523.023438 320.65625 Z M 523.023438 357.015625 " fill-opacity="1" fill-rule="nonzero"/></g></svg>