<svg xmlns="http://www.w3.org/2000/svg" xmlns:xlink="http://www.w3.org/1999/xlink" width="1080" zoomAndPan="magnify" viewBox="0 0 810 809.999993" height="1080" preserveAspectRatio="xMidYMid meet" version="1.0"><defs><clipPath id="153720955d"><path d="M 150 232.152344 L 660 232.152344 L 660 577.902344 L 150 577.902344 Z M 150 232.152344 " clip-rule="nonzero"/></clipPath></defs><g clip-path="url(#153720955d)"><path fill="#000000" d="M 644.667969 392.464844 C 622.425781 307.613281 596.796875 251.789062 537.753906 235.75 C 528.742188 233.3125 520.257812 232.117188 511.8125 232.117188 C 493.996094 232.117188 479.664062 237.488281 465.765625 242.6875 C 452.988281 247.46875 438.710938 252.710938 418.96875 254.484375 L 404.191406 254.917969 C 404.191406 255 359.558594 248.453125 344.019531 242.628906 C 330.203125 237.445312 315.894531 232.085938 298.15625 232.085938 C 289.6875 232.085938 281.1875 233.277344 272.183594 235.734375 C 213.09375 251.78125 187.472656 307.597656 165.28125 392.457031 C 139.546875 490.75 146.664062 556.636719 184.792969 573.253906 C 190.996094 575.972656 197.539062 577.347656 204.207031 577.347656 C 238.117188 577.347656 269.296875 541.695312 292.070312 515.628906 L 298.269531 508.445312 C 316.839844 486.71875 355.734375 474.261719 404.964844 474.261719 C 458.503906 474.261719 491.414062 484.808594 511.644531 508.476562 L 517.851562 515.679688 C 540.601562 541.710938 571.757812 577.332031 605.691406 577.332031 C 612.398438 577.332031 618.917969 575.957031 625.082031 573.253906 C 663.21875 556.644531 670.34375 490.757812 644.667969 392.464844 Z M 323.941406 399.105469 L 298.484375 399.105469 L 298.484375 423.769531 C 298.484375 432.816406 290.527344 440.441406 281.117188 440.441406 C 271.679688 440.441406 263.722656 432.816406 263.722656 423.769531 L 263.722656 399.105469 L 239.8125 399.105469 C 230.789062 399.105469 223.152344 391.136719 223.152344 381.714844 C 223.152344 372.273438 230.78125 364.316406 239.8125 364.316406 L 263.722656 364.316406 L 263.722656 339.628906 C 263.722656 330.597656 271.6875 322.957031 281.117188 322.957031 C 290.527344 322.957031 298.484375 330.597656 298.484375 339.628906 L 298.484375 364.316406 L 323.941406 364.316406 C 332.953125 364.316406 340.597656 372.273438 340.597656 381.714844 C 340.605469 391.144531 332.960938 399.105469 323.941406 399.105469 Z M 504.710938 429.367188 C 490.613281 429.367188 479.152344 417.914062 479.152344 403.816406 C 479.152344 389.722656 490.636719 378.265625 504.710938 378.265625 C 518.785156 378.265625 530.230469 389.730469 530.230469 403.816406 C 530.230469 417.914062 518.777344 429.367188 504.710938 429.367188 Z M 552.367188 381.699219 C 538.273438 381.699219 526.832031 370.226562 526.832031 356.140625 C 526.832031 342.058594 538.289062 330.597656 552.367188 330.597656 C 566.441406 330.597656 577.90625 342.058594 577.917969 356.140625 C 577.917969 370.234375 566.441406 381.699219 552.367188 381.699219 Z M 552.367188 381.699219 " fill-opacity="1" fill-rule="nonzero"/></g></svg>